<svg id="Capa_1" enable-background="new 0 0 512 512" height="512" viewBox="0 0 512 512" width="512" xmlns="http://www.w3.org/2000/svg"><g><g><path d="m415 110h-400c-5.199 0-10.027-2.692-12.76-7.114-2.733-4.422-2.981-9.945-.657-14.594l40-80c2.542-5.082 7.735-8.292 13.417-8.292h125l35 20 35-20h125c5.682 0 10.875 3.21 13.417 8.292l40 80c2.325 4.649 2.076 10.172-.657 14.594s-7.561 7.114-12.76 7.114z" fill="#d8aa5c"/><path d="m415 110c5.199 0 10.027-2.692 12.76-7.114s2.981-9.945.657-14.594l-40-80c-2.542-5.082-7.735-8.292-13.417-8.292h-125l-35 20v90z" fill="#c8661c"/><path d="m250 110h-70v-110h70z" fill="#fffa8c"/><path d="m215 0h35v110h-35z" fill="#ffc178"/><path d="m0 95v260c0 8.284 6.716 15 15 15h400c8.284 0 15-6.716 15-15v-260h-180l-35 20-35-20z" fill="#c8661c"/><path d="m415 370c8.284 0 15-6.716 15-15v-260h-180l-35 20v255z" fill="#8e4712"/><path d="m180 95v100c0 8.284 6.716 15 15 15h40c8.284 0 15-6.716 15-15v-100z" fill="#ffc178"/><path d="m215 210h20c8.284 0 15-6.716 15-15v-100h-35z" fill="#ff9d21"/><g fill="#6b61b1"><path d="m135 320h-60c-8.284 0-15-6.716-15-15s6.716-15 15-15h60c8.284 0 15 6.716 15 15s-6.716 15-15 15z"/><path d="m135 260h-60c-8.284 0-15-6.716-15-15s6.716-15 15-15h60c8.284 0 15 6.716 15 15s-6.716 15-15 15z"/></g></g><g><path d="m397 512c-1.452 0-2.904-.211-4.31-.633-32.235-9.67-59.893-29.054-79.982-56.054-20.089-27.001-30.708-59.062-30.708-92.716v-85.597c0-8.284 6.716-15 15-15 18.955 0 35.996-10.532 44.472-27.485l2.111-4.222c2.541-5.083 7.735-8.293 13.417-8.293h80c5.682 0 10.876 3.21 13.417 8.292l2.111 4.223c8.476 16.953 25.517 27.485 44.472 27.485 8.284 0 15 6.716 15 15v85.597c0 33.654-10.619 65.715-30.708 92.716-20.089 27-47.747 46.384-79.982 56.054-1.406.422-2.858.633-4.31.633z" fill="#9ddff6"/><path d="m497 262c-18.955 0-35.996-10.532-44.472-27.484l-2.111-4.223c-2.541-5.083-7.735-8.293-13.417-8.293h-40v290c1.452 0 2.904-.211 4.31-.633 32.235-9.67 59.893-29.054 79.982-56.054 20.089-27.001 30.708-59.062 30.708-92.716v-85.597c0-8.284-6.716-15-15-15z" fill="#6ba7ff"/><path d="m312 290.603v71.995c0 54.256 33.971 101.385 85 118.66 51.029-17.275 85-64.404 85-118.66v-71.995c-22.701-4.285-42.437-18.2-54.125-38.603h-61.75c-11.688 20.403-31.424 34.318-54.125 38.603z" fill="#f5f5ff"/><path d="m427.875 252h-30.875v229.257c51.029-17.275 85-64.404 85-118.66v-71.995c-22.701-4.284-42.437-18.2-54.125-38.602z" fill="#e2e7fa"/><path d="m382.858 410.284c-3.839 0-7.678-1.464-10.606-4.394l-28.284-28.284c-5.858-5.858-5.858-15.355 0-21.213 5.857-5.858 15.355-5.858 21.213 0l17.678 17.677 45.962-45.961c5.857-5.858 15.355-5.858 21.213 0s5.858 15.355 0 21.213l-56.568 56.568c-2.93 2.93-6.769 4.394-10.608 4.394z" fill="#6b61b1"/><path d="m428.82 328.109-31.82 31.82v42.426l53.033-53.033c5.858-5.858 5.858-15.355 0-21.213s-15.356-5.858-21.213 0z" fill="#453d81"/></g></g></svg>